<svg xmlns="http://www.w3.org/2000/svg" xmlns:v="https://svgstorm.com"
viewBox = "0 0 400 400"
width="400"
height="400">
<g fill="none" fillOpacity="1.00" stroke="None">
<path d="
M 0.00 400.00 
L 400.00 400.00
L 400.00 0.00
L 0.00 0.00
L 0.00 400.00
M 332.00 58.00 
C 334.56 60.19 336.85 62.49 339.00 65.00
C 368.98 100.09 391.00 140.77 391.00 188.00
C 391.46 192.72 391.45 198.35 391.00 203.00
C 391.00 294.21 310.04 382.49 218.00 386.00
C 215.79 386.32 212.86 387.00 210.00 387.00
C 204.00 387.00 198.00 387.00 192.00 387.00
C 188.81 387.00 185.48 386.35 183.00 386.00
C 135.40 384.18 92.51 359.24 59.75 324.25 C 26.98 289.27 7.45 238.04 10.00 189.00 C 12.55 139.96 31.36 95.56 67.25 60.25 C 103.13 24.94 147.20 7.72 198.00 6.00 C 248.80 4.28 293.98 25.51 332.00 58.00 Z"/>
</g>
<g fill="#1D2187" fillOpacity="1.00" stroke="None">
<path d="
M 183.00 386.00 
C 186.03 386.12 189.68 386.78 192.00 387.00
C 198.00 387.00 204.00 387.00 210.00 387.00
C 212.05 386.80 215.31 386.10 218.00 386.00
C 310.04 382.49 391.00 294.21 391.00 203.00
C 391.00 198.00 391.00 193.00 391.00 188.00
C 391.00 140.77 368.98 100.09 339.00 65.00
C 336.74 62.74 334.21 60.21 332.00 58.00
C 293.98 25.51 248.80 4.28 198.00 6.00 C 147.20 7.72 103.13 24.94 67.25 60.25 C 31.36 95.56 12.55 139.96 10.00 189.00 C 7.45 238.04 26.98 289.27 59.75 324.25 C 92.51 359.24 135.40 384.18 183.00 386.00
M 129.00 195.00 
C 129.03 191.60 134.76 193.23 139.00 193.00
C 164.19 191.63 181.21 173.48 197.00 155.00
C 199.76 151.77 202.70 148.61 206.00 146.00
C 252.10 109.60 317.08 112.92 368.00 137.00
C 356.99 150.41 343.94 163.95 330.00 174.00
C 308.97 157.71 274.96 160.61 250.98 166.98 C 226.99 173.34 207.43 184.59 190.25 203.25 C 173.07 221.91 137.61 222.53 129.00 195.00
M 345.00 192.00 
C 333.28 207.52 316.66 219.81 303.00 234.00
C 281.68 213.90 245.71 210.09 218.33 217.33 C 190.95 224.56 170.81 251.06 141.00 248.00 C 111.19 244.94 98.18 218.49 85.08 195.92 C 71.97 173.36 59.36 150.17 37.00 135.00
C 61.37 131.83 85.38 144.96 101.30 163.70 C 117.22 182.43 115.59 207.43 139.23 220.77 C 162.87 234.11 187.58 218.45 205.70 201.70 C 223.82 184.94 246.42 176.27 271.01 172.01 C 295.59 167.75 326.00 175.75 345.00 192.00
M 211.00 274.00 
C 205.45 273.70 199.55 273.70 194.00 274.00
C 171.98 275.19 150.55 294.31 127.92 286.08 C 105.30 277.84 102.18 253.85 97.00 234.00
C 118.61 259.67 157.91 264.43 184.25 244.25 C 210.59 224.06 250.20 217.54 279.00 235.00
C 269.08 253.72 248.52 264.88 235.00 281.00
C 227.60 276.84 219.47 274.73 211.00 274.00 Z"/>
</g>
<g fill="#7C7EA8" fillOpacity="1.00" stroke="None">
<path d="
M 339.00 65.00 
C 336.85 62.49 334.56 60.19 332.00 58.00
C 334.21 60.21 336.74 62.74 339.00 65.00 Z"/>
</g>
<g fill="#FBFCFC" fillOpacity="1.00" stroke="None">
<path d="
M 206.00 146.00 
C 203.04 148.74 199.82 152.18 197.00 155.00
C 181.21 173.48 164.19 191.63 139.00 193.00
C 137.49 193.25 129.84 193.60 129.00 195.00
C 137.61 222.53 173.07 221.91 190.25 203.25 C 207.43 184.59 226.99 173.34 250.98 166.98 C 274.96 160.61 308.97 157.71 330.00 174.00
C 343.94 163.95 356.99 150.41 368.00 137.00
C 317.08 112.92 252.10 109.60 206.00 146.00 Z"/>
</g>
<g fill="#FBFBFC" fillOpacity="1.00" stroke="None">
<path d="
M 345.00 192.00 
C 326.00 175.75 295.59 167.75 271.01 172.01 C 246.42 176.27 223.82 184.94 205.70 201.70 C 187.58 218.45 162.87 234.11 139.23 220.77 C 115.59 207.43 117.22 182.43 101.30 163.70 C 85.38 144.96 61.37 131.83 37.00 135.00
C 59.36 150.17 71.97 173.36 85.08 195.92 C 98.18 218.49 111.19 244.94 141.00 248.00 C 170.81 251.06 190.95 224.56 218.33 217.33 C 245.71 210.09 281.68 213.90 303.00 234.00
C 316.66 219.81 333.28 207.52 345.00 192.00 Z"/>
</g>
<g fill="#8B8DBF" fillOpacity="1.00" stroke="None">
<path d="
M 197.00 155.00 
C 199.82 152.18 203.04 148.74 206.00 146.00
C 202.70 148.61 199.76 151.77 197.00 155.00 Z"/>
</g>
<g fill="#8182B9" fillOpacity="1.00" stroke="None">
<path d="
M 391.00 203.00 
C 391.45 198.35 391.46 192.72 391.00 188.00
C 391.00 193.00 391.00 198.00 391.00 203.00 Z"/>
</g>
<g fill="#ACABDD" fillOpacity="1.00" stroke="None">
<path d="
M 129.00 195.00 
C 129.84 193.60 137.49 193.25 139.00 193.00
C 134.76 193.23 129.03 191.60 129.00 195.00 Z"/>
</g>
<g fill="#FBFBFC" fillOpacity="1.00" stroke="None">
<path d="
M 194.00 274.00 
C 199.46 273.11 205.61 273.12 211.00 274.00
C 219.47 274.73 227.60 276.84 235.00 281.00
C 248.52 264.88 269.08 253.72 279.00 235.00
C 250.20 217.54 210.59 224.06 184.25 244.25 C 157.91 264.43 118.61 259.67 97.00 234.00
C 102.18 253.85 105.30 277.84 127.92 286.08 C 150.55 294.31 171.98 275.19 194.00 274.00 Z"/>
</g>
<g fill="#A1A3C9" fillOpacity="1.00" stroke="None">
<path d="
M 194.00 274.00 
C 199.55 273.70 205.45 273.70 211.00 274.00
C 205.61 273.12 199.46 273.11 194.00 274.00 Z"/>
</g>
<g fill="#9A9EC2" fillOpacity="1.00" stroke="None">
<path d="
M 192.00 387.00 
C 189.68 386.78 186.03 386.12 183.00 386.00
C 185.48 386.35 188.81 387.00 192.00 387.00 Z"/>
</g>
<g fill="#989DBD" fillOpacity="1.00" stroke="None">
<path d="
M 210.00 387.00 
C 212.86 387.00 215.79 386.32 218.00 386.00
C 215.31 386.10 212.05 386.80 210.00 387.00 Z"/>
</g>
</svg>