<?xml version="1.0" encoding="UTF-8"?>
<svg version="1.1" viewBox="0 0 2048 1968" width="200" height="200" xmlns="http://www.w3.org/2000/svg">
<path transform="translate(0)" d="m0 0h2048v1968h-2048z" fill="none"/>
<path transform="translate(989)" d="m0 0h50l2 2 33 10 27 11 16 8 14 8 14 10 15 12 11 9 15 15 9 11 8 10 12 17 13 21 13 25 10 25 9 30 4 24 1 10v35l-4 31-7 28-26 98-18 67-20 75-14 54-14 50-3 13v12l8 16 11 13 11 9 10 5 12 2h653l34 1 20 3 19 5 18 8 12 7 12 11 7 7 9 14 8 19 4 19v27l-4 18-7 20-9 20-12 17-13 16-13 13-11 9-15 11-15 9-22 10-18 6-18 2-1 1 24 11 18 10 14 11 9 9 8 13 7 15 4 15 2 14v19l-7 29-7 17-7 14-9 14-14 17-9 11-12 11-18 13-21 12-26 12-23 8-3 3 16 4 13 5 16 10 11 10 9 12 9 17 6 18 3 18v11l-4 23-5 16-7 19-9 16-13 17-16 17-12 11-15 11-18 11-25 12-31 9h-2l3 3 16 6 16 8 11 6 10 9 7 8 9 16 7 16 3 11 1 8v25l-3 17-8 26-9 19-12 17-10 11-7 8-8 8-11 9-12 9-15 9-16 8-17 7-26 8-22 3h-733l-107-1h-28l-21-3v-2l28-5 25-7 49-16 56-21 36-15 28-13 26-12 27-13 22-12 23-13 22-12 20-12 23-15 15-10 16-11 38-28 36-28 13-11 11-9 17-16 12-11 17-16 15-15 8-7 18-18 7-8 12-12 7-8 14-15 12-14 9-11 13-16 9-12 11-14 13-18 15-22 15-24 14-24 11-22 10-23 8-25 4-20 2-17v-31l-3-18-5-15-8-17-8-12-7-8v-2l-4-2-8-7-13-8-16-8-17-6-17-4-17-2h-40l-28 3-24 5-36 10-34 13-28 13-21 11-24 14-19 12-16 11-4-2-2-3-3-9-6-10-8-16-9-11-8-8-18-12-17-9-19-7-16-3-18-2h-35l-30 3-29 6-32 9-27 10-24 11-16 8-26 14-16 9-20 12-16 12-19 14-16 13-5 3h-3l4-16 13-48 15-56 22-81 17-64 18-65 21-79 11-42 12-43 19-71 16-61 18-70 22-84 19-74 12-45 13-51 14-54 16-61 13-51 12-45 6-23z" fill="#0A4196"/>
<path transform="translate(1284,1153)" d="m0 0h12l16 6 17 9 5 5 9 14 3 5 4 10 2 7v15l-3 10-4 8-5 9-16 20h-2l-2 4-5 2-2 5-9 9h-2l-2 4-5 4-4 5h-2v2l-6 5-4 4-6 5-5 5-4 2-2 4-3 3h-2v2l-8 7-17 17-8 7-10 9-14 11-14 12-9 7h-2v2l-11 9-10 9-13 10-5 5-16 13-8 6-13 12-28 22-17 13-10 7-5 2v2l-12 9-19 14-21 16-32 22-18 12-16 10-15 10-29 19-26 16-18 11-27 15-12 7-23 13-32 18-29 15-19 10-16 8-28 13-24 12-27 10-31 13-43 16-52 17-61 16-35 7-37 6-40 5-18 1h-13l-33-3-32-5-38-9-24-9-20-9-19-10-18-12-14-11-14-14-9-11-9-12-11-18-8-17-11-28-4-8-2-7v-139l12-45 8-28 2-13 2-2h3l1 46 3 27 6 31 8 35 7 19 8 19 12 24 10 16 9 12 7 7v2l4 2 10 9 14 9 18 10 19 9 21 5 26 4h55l40-3 39-6 51-10 31-8 39-12 40-15 21-8 21-9 25-11 19-9 28-13 42-21 54-29 11-6 16-10 21-13 14-8 43-28 24-16 17-11 30-20 36-26 23-15 11-9 14-11 17-13 15-12 11-8 16-13 11-9 14-12 10-8 26-22 8-7 15-14 10-9 6-5h2v-2l11-9 8-8 8-7 8-8h2v-2l3-3h2v-2l11-9 4-2v-2l8-7h2l2-4 12-12 1-2h2l2-4 6-6h2l2-4 14-12 9-7 9-5z" fill="#FE7164"/>
<path transform="translate(1442,317)" d="m0 0h35l30 2 23 4 27 7 25 9 20 9 17 9 15 10 10 8 10 9 9 9 11 14 10 14 12 21 8 16 8 20 3 13 3 31v86l-2 27-4 25-3 11-2 1-10 1-25 1h-81l9-36 7-38 3-24 1-26-2-21-4-19-6-16-9-14-11-12-11-9-14-9-16-8-21-7-23-4-10-1h-61l-25 2-41 5h-9l4-18 16-64 9-32 2-3 35-2z" fill="#77B75C"/>
<path transform="translate(744,612)" d="m0 0h1l-1 13-5 23-13 48-4 14-5 5-11 8-13 10-19 13-11 8-21 14-19 14-15 11-14 11-16 12-14 11-16 13-16 12-15 13-11 9-15 13-11 9-13 11-11 9-17 16-15 14-10 9-14 12-15 13-61 57-59 59-6 7h-2l-2 4-16 16-8 10-13 14-9 11-24 28-11 14-13 16-11 14-14 17-14 19-9 12-8 9-7 5h-1l1-7 8-16 16-27 10-15 10-14 13-18 10-14 9-12 14-19 8-11 8-10 14-17 8-11 9-11 11-13 9-11 9-12 8-10 11-13 12-14 11-14 24-28 11-12 7-7 7-8 20-20 1-2h2l2-4 36-36 8-7 37-37 8-7 23-23 8-7 26-24 10-9 14-11 14-12 10-8 13-11 14-11 13-11 11-9 13-11 14-11 18-14 12-9 15-11 17-11 18-12z" fill="#77B75C"/>
<path transform="translate(1487,837)" d="m0 0h30l18 3 15 5 17 9 11 9 8 8 9 14 4 10 2 10v15l-4 16-6 12-12 13-8 7-13 8-20 8-20 5h-22l-22-4-21-7-16-8-11-8-8-9-8-16-3-11-1-16 2-15 5-13 7-11 10-10 14-10 17-8 15-4z" fill="#FEFDFD"/>
<path transform="translate(1284,1153)" d="m0 0h12l16 6 17 9 5 5 9 14 3 5 4 10 2 7v15l-3 10-4 8-5 9-16 20h-2l-2 4-5 2-2 5-9 9h-2l-2 4-5 4-4 5h-2v2l-6 5-4 4-6 5-5 5-4 2-2 4-3 3h-2v2l-8 7-17 17-8 7-10 9-14 11-14 12-9 7h-2v2l-11 9-10 9-13 10-5 5-16 13-8 6-13 12-28 22-17 13h-3l5-5h2v-2l11-9 13-12 7-6h2l1-3h2l1-3 6-4 4-4 5-3 3-1v-2l6-4 15-14 7-4h2v-2l8-6 7-5 5-5 10-8 3-3 5-4 1-2h2l1-3 11-8 2-3 6-5 3-3h2l2-4 7-4 4-4h2l1-3h2v-2l8-8 4-2 5-5h2l1-3h2l1-4 5-4h2v-2h2v-2l9-7 2-3h2l1-3 4-3h2l1-4h2l1-3 4-3h2l1-3h2l2-4 5-3 5-7 5-3 7-8 7-6 5-5 4-5 6-10 2-10h2v-4h2l3-9 1-5-1-5-1-10-4-5-3-9-3-3-2-6-2-3-5-3v-2l-6-5-8-4-12-5-4-1-13 1-13 3-12 7-3 3h-2v2l-5 3h-2v2l-7 5-4 5-7 5-2 3h-2v2h-2v2l-4 3h-2v2l-8 7-7 7-8 7-12 11-15 15h-2l-2 4h-2l-2 4-5 5-9 10h-2l-1 3-6 4-6 5-9 6-8 8h-2v2l-3 3h-2v2h-2v2l-6 5h-2v2l-10 8-5 5-7 5-5 5-12 9-15 13-5 5-7 6-9 7-10 6-9 7-3 3-5 2v2h-2v2l-6 4h-2l-2 4-7 4-3 3-6 3h-2v2l-17 12-12 8-3 1v2l-8 5h-2v2l-9 5-4 4-5 2v2l-8 5h-2v2l-9 6-10 6-11 7-9 6h-2v2l-11 7-5 4h-2v2l-8 5h-2l-2 4-11 6-14 8-5 2-1 3-6 3-9 5-14 8-13 8-7 4-10 6-20 11-14 7-18 10-10 6-19 10-17 8-14 7-16 7-16 8-14 6-15 7-34 14-24 9-19 7-31 11-35 10-16 4h-6l4-2 34-9 32-10 40-15 21-8 21-9 25-11 19-9 28-13 42-21 54-29 11-6 16-10 21-13 14-8 43-28 24-16 17-11 30-20 36-26 23-15 11-9 14-11 17-13 15-12 11-8 16-13 11-9 14-12 10-8 26-22 8-7 15-14 10-9 6-5h2v-2l11-9 8-8 8-7 8-8h2v-2l3-3h2v-2l11-9 4-2v-2l8-7h2l2-4 12-12 1-2h2l2-4 6-6h2l2-4 14-12 9-7 9-5z" fill="#FE9D98"/>
<path transform="translate(1049,1508)" d="m0 0 2 1-10 7h-2v2l-12 9-19 14-21 16-32 22-4 3-2-1 5-6 6-3 3-3 5-2 3-3h3v-2l7-6 4-1v-2l16-11 5-2v-2h2v-2l4-1 6-5h2v-2l11-8h2v-2h2v-2z" fill="#FE9D98"/>
<path transform="translate(42,1580)" d="m0 0 2 4 7 21 9 21 12 24 10 16 6 8-1 2-7-8-12-19-7-13-4-7-7-16-3-7-5-19z" fill="#FE9D98"/>
<path transform="translate(88,1676)" d="m0 0 7 6 3 3v2l4 2 10 9 14 9-3 1-12-8-13-11-10-11z" fill="#FE9D98"/>
<path transform="translate(936,1589)" d="m0 0 3 1-15 9-9 6-2-1 1-2h3v-2l12-7z" fill="#FE9D98"/>
</svg>
