<?xml version="1.0" encoding="UTF-8"?>
<!-- Generator: https://ezgif.com/png-to-svg -->
<svg version="1.1" xmlns="http://www.w3.org/2000/svg" width="225" height="225">
<path d="M0 0 C74.25 0 148.5 0 225 0 C225 74.25 225 148.5 225 225 C150.75 225 76.5 225 0 225 C0 150.75 0 76.5 0 0 Z " fill="#003354" transform="translate(0,0)"/>
<path d="M0 0 C0.89 0.01 1.78 0.01 2.7 0.02 C8.97 0.13 14.43 0.65 20.19 3.31 C21.06 3.69 21.94 4.07 22.84 4.46 C36.87 11.26 44.51 22.3 50.19 36.31 C53.41 47.33 52.54 62.15 47.8 72.45 C39.5 87.17 28.65 96.32 12.49 101.5 C7.15 102.72 1.77 102.6 -3.69 102.56 C-4.73 102.57 -5.78 102.58 -6.85 102.59 C-7.85 102.58 -8.84 102.58 -9.87 102.58 C-10.77 102.58 -11.67 102.57 -12.6 102.57 C-14.81 102.31 -14.81 102.31 -16.81 100.31 C-17.07 98.37 -17.07 98.37 -17.08 96.03 C-17.08 94.77 -17.08 94.77 -17.09 93.48 C-17.08 92.6 -17.07 91.72 -17.06 90.81 C-17.07 89.49 -17.07 89.49 -17.09 88.14 C-17.08 87.3 -17.08 86.46 -17.08 85.59 C-17.08 84.82 -17.07 84.05 -17.07 83.25 C-16.81 81.31 -16.81 81.31 -14.81 79.31 C-12.72 79.07 -12.72 79.07 -10.16 79.07 C-9.22 79.06 -8.28 79.05 -7.32 79.04 C-6.33 79.02 -5.34 79.01 -4.31 79 C6.4 78.67 13.54 77.44 21.12 69.44 C27.63 61.14 28.34 53.78 27.19 43.31 C24.9 35.53 20.35 30.31 13.42 26.29 C5.88 22.84 -3.38 23.15 -11.12 25.75 C-17.87 28.87 -22.79 34.18 -25.39 41.13 C-27.39 47.34 -27.25 53.5 -27.25 59.96 C-27.27 61.94 -27.29 63.92 -27.32 65.9 C-27.34 68.66 -27.35 71.41 -27.37 74.16 C-27.39 78.97 -27.42 83.79 -27.47 88.6 C-27.49 91.15 -27.51 93.71 -27.51 96.26 C-27.64 111.45 -30.65 123.74 -40.81 135.31 C-41.78 136.47 -41.78 136.47 -42.76 137.65 C-43.42 138.39 -44.07 139.12 -44.75 139.88 C-45.34 140.54 -45.92 141.2 -46.53 141.88 C-49.91 144 -53 144 -56.81 143.31 C-59.69 142.2 -62.21 140.71 -64.81 139.06 C-65.49 138.67 -66.17 138.27 -66.87 137.86 C-68.81 136.67 -68.81 136.67 -71.81 134.31 C-71.81 132.99 -71.81 131.67 -71.81 130.31 C-69.62 128.67 -69.62 128.67 -66.69 127.06 C-58.77 122.27 -54.94 117.12 -52.42 108.28 C-51.25 102.55 -51.41 96.8 -51.44 90.98 C-51.43 89.61 -51.43 88.24 -51.42 86.87 C-51.38 81.11 -51.37 75.35 -51.38 69.58 C-51.38 66.04 -51.36 62.49 -51.33 58.95 C-51.32 56.97 -51.33 55 -51.34 53.02 C-51.26 42.55 -49.27 33.16 -43.31 24.38 C-42.75 23.52 -42.18 22.67 -41.59 21.79 C-31.55 7.84 -17.19 -0.11 0 0 Z " fill="#E77E7A" transform="translate(120.8125,42.6875)"/>
</svg>
