<?xml version="1.0" encoding="UTF-8"?>
<!-- Generator: https://ezgif.com/png-to-svg -->
<svg version="1.1" xmlns="http://www.w3.org/2000/svg" width="600" height="600">
<path d="M0 0 C198 0 396 0 600 0 C600 198 600 396 600 600 C402 600 204 600 0 600 C0 402 0 204 0 0 Z " fill="none" transform="translate(0,0)"/>
<path d="M0 0 C0.73 -0.01 1.45 -0.02 2.2 -0.03 C49.57 -0.54 90.37 13.53 124.75 46.82 C128.57 50.68 131.9 54.9 135.15 59.24 C135.88 60.2 136.61 61.16 137.36 62.15 C156.29 88.3 165.15 117.09 165.15 149.24 C147.66 149.24 130.17 149.24 112.15 149.24 C111.16 142.31 110.17 135.38 109.15 128.24 C105.03 112.47 98.86 99.58 88.15 87.24 C86.98 85.69 86.98 85.69 85.78 84.11 C71.53 68.51 52.26 60.88 32.15 56.24 C31.23 56.01 30.3 55.78 29.35 55.55 C3.84 50.23 -23.23 55.69 -45.16 69.49 C-52.05 74.02 -58.02 79.42 -63.85 85.24 C-64.94 86.31 -64.94 86.31 -66.05 87.41 C-83.91 106.14 -91.54 132.35 -91.39 157.7 C-91.07 168.6 -88.96 178.82 -85.85 189.24 C-85.63 189.98 -85.41 190.72 -85.18 191.48 C-77.95 214.99 -62.01 233.87 -40.47 245.61 C-26.21 252.99 -11.99 254.93 4.15 257.24 C4.15 274.73 4.15 292.22 4.15 310.24 C-13.86 310.24 -13.86 310.24 -20.04 308.93 C-20.69 308.79 -21.35 308.65 -22.03 308.5 C-23.97 308.09 -25.91 307.67 -27.85 307.24 C-28.91 307.04 -29.98 306.85 -31.07 306.65 C-51.11 302.75 -71.16 292.04 -86.85 279.24 C-87.41 278.78 -87.98 278.32 -88.56 277.85 C-101.99 266.88 -112.43 254.76 -121.85 240.24 C-122.5 239.25 -123.15 238.27 -123.82 237.25 C-129.05 228.84 -132.53 219.71 -136 210.48 C-136.68 208.67 -137.39 206.88 -138.1 205.09 C-144.14 188.93 -145.23 171.88 -145.29 154.8 C-145.29 154.05 -145.3 153.29 -145.3 152.52 C-145.52 112.32 -128.5 74.87 -100.85 46.24 C-100.11 45.45 -99.37 44.66 -98.61 43.84 C-74.03 18.19 -35.71 0.4 0 0 Z " fill="#0158A1" transform="translate(273.84765625,128.76171875)"/>
<path d="M0 0 C59.73 0 119.46 0 181 0 C181 10.56 181 21.12 181 32 C123.25 32 65.5 32 6 32 C1.69 19.07 0 13.03 0 0 Z " fill="#BD012C" transform="translate(290,311)"/>
<path d="M0 0 C56.1 0 112.2 0 170 0 C170 10.56 170 21.12 170 32 C150.37 32.34 130.75 32.62 111.11 32.78 C102 32.85 92.89 32.96 83.77 33.13 C75.82 33.28 67.88 33.38 59.93 33.41 C55.72 33.43 51.52 33.48 47.31 33.59 C19.7 34.28 19.7 34.28 13.58 28.83 C11.02 25.82 9.28 22.67 7.82 19.01 C6.68 16.22 5.22 13.64 3.76 11 C0 4.07 0 4.07 0 0 Z " fill="#BD032E" transform="translate(302,364)"/>
<path d="M0 0 C44.88 0 89.76 0 136 0 C136 10.56 136 21.12 136 32 C118.62 32.2 118.62 32.2 111.08 32.24 C105.97 32.27 100.87 32.31 95.77 32.38 C58.37 32.87 28.57 26.99 0 1 C0 0.67 0 0.34 0 0 Z " fill="#BD012C" transform="translate(335,418)"/>
</svg>
