<?xml version="1.0" encoding="UTF-8"?>
<!-- Generator: https://ezgif.com/png-to-svg -->
<svg version="1.1" xmlns="http://www.w3.org/2000/svg" width="400" height="400">
<path d="M0 0 C132 0 264 0 400 0 C400 132 400 264 400 400 C268 400 136 400 0 400 C0 268 0 136 0 0 Z " fill="none" transform="translate(0,0)"/>
<path d="M0 0 C6.6 0 13.2 0 20 0 C20 23.1 20 46.2 20 70 C14.06 70 8.12 70 2 70 C1.5 66.53 1.5 66.53 1 63 C0.53 63.42 0.06 63.84 -0.43 64.28 C-1.05 64.83 -1.67 65.37 -2.31 65.94 C-2.93 66.48 -3.54 67.03 -4.18 67.59 C-8.9 71.24 -15.35 70.54 -21 70 C-27.51 66.86 -31.47 61.41 -34.23 54.85 C-36.52 46.34 -36.18 36.12 -32.41 28.12 C-29.33 23.48 -25.31 19.77 -20 18 C-18.28 17.83 -16.54 17.73 -14.81 17.69 C-13.46 17.63 -13.46 17.63 -12.08 17.57 C-9 18 -9 18 -1 22 C-0.67 14.74 -0.34 7.48 0 0 Z " fill="#04AA91" transform="translate(148,162)"/>
<path d="M0 0 C6.27 0 12.54 0 19 0 C19 23.1 19 46.2 19 70 C13.39 70 7.78 70 2 70 C1.5 66.53 1.5 66.53 1 63 C-0.05 64.18 -0.05 64.18 -1.12 65.38 C-6.33 70.12 -11.56 70.46 -18.38 70.31 C-23.56 69.69 -26.18 66.84 -29.69 63.25 C-35.86 54.57 -36.05 45.31 -35 35 C-33.6 28 -30.78 24.04 -24.9 20.06 C-19.89 17.27 -14.58 17.54 -9 18 C-5.55 19.33 -3.59 20.41 -1 23 C-0.67 15.41 -0.34 7.82 0 0 Z " fill="#01A98F" transform="translate(207,162)"/>
<path d="M0 0 C1.41 -0.02 1.41 -0.02 2.84 -0.04 C9.79 -0.01 16.62 0.63 22.22 5.09 C22.66 5.68 23.11 6.27 23.56 6.88 C24.03 7.46 24.49 8.05 24.97 8.66 C27.67 12.9 27.19 17.37 27.16 22.2 C27.16 23.06 27.16 23.92 27.16 24.81 C27.15 27.56 27.14 30.31 27.12 33.06 C27.12 34.93 27.12 36.79 27.11 38.66 C27.1 43.23 27.08 47.8 27.06 52.38 C21.12 52.38 15.18 52.38 9.06 52.38 C8.73 50.72 8.4 49.07 8.06 47.38 C7.24 47.92 7.24 47.92 6.4 48.47 C-1.22 52.93 -8.24 53.43 -16.94 52.38 C-21.12 51.14 -23.45 48.92 -26.38 45.69 C-28.4 41.4 -28.76 38.03 -27.94 33.38 C-25.49 28.29 -23.04 26.55 -17.94 24.38 C-14.45 23.36 -10.92 22.55 -7.38 21.75 C-6.44 21.53 -5.51 21.32 -4.55 21.09 C-0.36 20.13 3.84 19.21 8.06 18.38 C7.72 15.9 7.72 15.9 7.06 13.38 C3.9 11.8 0.46 11.56 -2.94 12.38 C-3.66 13.2 -4.38 14.03 -5.12 14.88 C-9.1 18.4 -12.13 17.95 -17.25 17.69 C-18.09 17.66 -18.92 17.64 -19.78 17.62 C-21.84 17.56 -23.89 17.47 -25.94 17.38 C-26.16 14.14 -26.29 12.01 -24.69 9.14 C-24.11 8.5 -23.53 7.85 -22.94 7.19 C-22.38 6.53 -21.82 5.88 -21.25 5.21 C-14.78 0.09 -7.91 -0.1 0 0 Z " fill="#03AA90" transform="translate(82.9375,179.625)"/>
<path d="M0 0 C5.94 0 11.88 0 18 0 C18.33 2.31 18.66 4.62 19 7 C19.47 6.58 19.94 6.16 20.43 5.72 C21.05 5.17 21.67 4.63 22.31 4.06 C22.93 3.52 23.54 2.97 24.18 2.41 C28.9 -1.24 35.35 -0.63 41 0 C45.36 1.61 48.1 3.57 50.58 7.51 C52.41 12.01 52.38 15.75 52.29 20.55 C52.29 21.46 52.28 22.36 52.28 23.29 C52.26 26.15 52.23 29.01 52.19 31.88 C52.17 33.82 52.16 35.77 52.15 37.72 C52.12 42.48 52.06 47.24 52 52 C45.73 52 39.46 52 33 52 C32.96 49.57 32.93 47.14 32.89 44.63 C32.84 42.28 32.79 39.93 32.74 37.58 C32.7 35.95 32.68 34.31 32.65 32.68 C32.62 30.33 32.57 27.98 32.51 25.63 C32.51 24.9 32.5 24.17 32.49 23.41 C32.46 21.13 32.46 21.13 32 18 C28.53 15.69 27.08 15.49 23 16 C20.46 18.4 20.01 19.89 19.57 23.39 C19.54 24.71 19.52 26.03 19.49 27.39 C19.47 28.1 19.45 28.8 19.43 29.53 C19.38 31.77 19.35 34.01 19.31 36.25 C19.28 37.77 19.24 39.3 19.21 40.82 C19.12 44.55 19.06 48.27 19 52 C12.73 52 6.46 52 0 52 C0 34.84 0 17.68 0 0 Z " fill="#FF8032" transform="translate(290,180)"/>
<path d="M0 0 C0.75 0.01 1.5 0.01 2.27 0.02 C10.82 0.2 17.97 1.59 24.34 7.63 C27.6 11.52 28.75 15.2 28.75 20.31 C25.81 20.45 22.88 20.55 19.94 20.62 C19.1 20.67 18.27 20.71 17.41 20.75 C15.09 20.8 13.02 20.79 10.75 20.31 C8.8 17.86 8.8 17.86 7.75 15.31 C4.5 13.69 1.26 13.78 -2.25 14.31 C-5.54 15.76 -5.54 15.76 -7.25 19.31 C-8.05 25.25 -8.67 30.96 -5.5 36.22 C-3.46 38.44 -3.46 38.44 -1.03 38.91 C2.47 38.76 5.08 38.65 8.25 37.06 C10.1 35.16 10.1 35.16 10.75 31.31 C16.69 31.31 22.63 31.31 28.75 31.31 C27.62 39.24 25.82 43.67 19.87 49 C11.56 54.25 0.18 53.46 -9.25 52.31 C-16.21 50.48 -21.43 46.41 -25.25 40.31 C-29.03 33.04 -28.6 22.09 -26.41 14.34 C-23.22 8.07 -17.94 3.85 -11.51 1.17 C-7.64 0.15 -3.97 -0.03 0 0 Z " fill="#FF8235" transform="translate(257.25,179.6875)"/>
<path d="M0 0 C3.44 1.12 3.44 1.12 5.88 2.94 C8.27 7.82 8.23 12.79 7.44 18.12 C5.11 22.79 5.11 22.79 2.44 24.12 C-3.9 24.59 -3.9 24.59 -6.44 22.81 C-9.83 17.72 -9.2 10.96 -8.56 5.12 C-5.99 0.92 -4.91 0.17 0 0 Z " fill="#F8FCFC" transform="translate(199.5625,193.875)"/>
<path d="M0 0 C4.36 1 5.58 1.84 8 5.69 C8.82 11.63 9.45 17.37 6.18 22.59 C4 24.69 4 24.69 0.5 25.25 C-3.47 24.61 -4.6 23.83 -7 20.69 C-9.1 16.48 -8.52 11.26 -8 6.69 C-6.34 2.79 -4.2 0.96 0 0 Z " fill="#F7FCFB" transform="translate(140,193.3125)"/>
<path d="M0 0 C0.49 7.34 0.49 7.34 -1.75 10.38 C-2.49 10.91 -3.23 11.45 -4 12 C-4.6 12.43 -5.2 12.87 -5.81 13.31 C-9.09 14.34 -11.69 13.74 -15 13 C-17 11 -17 11 -17.5 8.62 C-17 6 -17 6 -14.44 3.81 C-9.57 1.25 -5.5 0 0 0 Z " fill="#F1FAF9" transform="translate(91,208)"/>
</svg>
