<svg version="1.1" id="Layer_1" xmlns="http://www.w3.org/2000/svg" xmlns:xlink="http://www.w3.org/1999/xlink" x="0px" y="0px"
	 width="100%" viewBox="0 0 800 500" enable-background="new 0 0 800 500" xml:space="preserve">
<path fill="none" opacity="1.000000" stroke="none" 
	d="
M501.000000,501.000000 
	C334.000000,501.000000 167.500000,501.000000 1.000000,501.000000 
	C1.000000,334.333344 1.000000,167.666672 1.000000,1.000000 
	C267.666656,1.000000 534.333313,1.000000 801.000000,1.000000 
	C801.000000,167.666672 801.000000,334.333344 801.000000,501.000000 
	C701.166687,501.000000 601.333313,501.000000 501.000000,501.000000 
M70.009361,274.379364 
	C75.167900,291.680206 85.679962,304.693298 102.624001,311.006439 
	C123.500618,318.784760 142.452316,314.348022 158.217789,298.612854 
	C164.746109,303.032898 167.186295,313.444244 177.674927,309.925293 
	C177.674927,275.616241 177.674927,241.398331 177.674927,207.383011 
	C172.047379,205.718063 168.167694,207.421783 165.140411,212.068314 
	C163.191605,215.059525 160.558701,217.605026 159.164459,219.250366 
	C151.080246,214.907928 144.111969,209.584061 136.256195,207.259659 
	C117.314606,201.655167 100.051125,206.052124 85.509239,219.679306 
	C69.685783,234.507477 65.775848,252.897430 70.009361,274.379364 
M568.693420,304.816711 
	C575.661255,311.085052 583.781189,314.024506 593.199768,314.395630 
	C605.728943,314.889252 616.226379,310.826904 624.995239,301.535431 
	C627.429199,304.674622 629.108826,308.059937 631.823303,309.989197 
	C634.388611,311.812408 638.041382,312.105621 641.581665,313.183136 
	C641.581665,281.549896 641.581665,251.471054 641.581665,221.326477 
	C633.752136,221.326477 626.213867,221.326477 618.348022,221.326477 
	C618.348022,223.332092 618.347229,224.973160 618.348145,226.614227 
	C618.356262,240.604996 618.458191,254.596512 618.344543,268.586273 
	C618.245789,280.734222 610.062195,289.147430 598.622498,289.164001 
	C587.239014,289.180481 579.022095,280.680664 578.939758,268.575684 
	C578.842407,254.252365 578.911072,239.927948 578.886963,225.604034 
	C578.884521,224.163193 578.738708,222.722565 578.653687,221.177338 
	C570.869080,221.177338 563.440552,221.177338 555.889221,221.177338 
	C555.767395,222.016083 555.593384,222.657974 555.592590,223.300079 
	C555.571777,240.288895 555.447815,257.278839 555.604797,274.266144 
	C555.712463,285.917389 559.978882,295.985260 568.693420,304.816711 
M191.387558,245.964081 
	C195.535660,246.461685 199.683746,246.959305 204.088608,247.487701 
	C204.088608,251.723267 204.006760,255.868179 204.104507,260.008850 
	C204.359756,270.822510 204.260071,281.668701 205.112610,292.437714 
	C206.049774,304.275848 211.849396,312.032227 222.445251,313.178009 
	C234.363907,314.466766 246.529236,313.474487 258.588043,313.474487 
	C258.588043,305.829163 258.588043,298.060699 258.588043,289.903961 
	C250.866318,289.903961 243.409805,289.982300 235.956039,289.872742 
	C231.892883,289.812988 227.970779,288.988403 227.915710,283.784180 
	C227.787521,271.671509 227.874832,259.556549 227.874832,246.776855 
	C238.175262,246.776855 248.384659,246.776855 258.542908,246.776855 
	C258.542908,239.189651 258.542908,232.274048 258.542908,224.939423 
	C248.135895,224.939423 238.037613,224.939423 227.374298,224.939423 
	C227.374298,211.974030 227.374298,199.424271 227.374298,186.955109 
	C219.589371,186.159454 219.585526,186.156189 215.315094,191.178635 
	C212.510895,194.476685 209.416718,197.583893 207.031860,201.162735 
	C205.503906,203.455643 204.441422,206.402252 204.211746,209.143112 
	C203.775085,214.354065 204.085220,219.627594 204.085220,225.251648 
	C199.405411,225.251648 195.483597,225.251648 191.226227,225.251648 
	C191.226227,232.122925 191.226227,238.589417 191.387558,245.964081 
M510.802002,205.500305 
	C510.802002,199.376801 510.802002,193.253311 510.802002,187.000092 
	C505.764923,186.033493 501.625458,186.056213 498.735962,190.764847 
	C497.444427,192.869492 495.750458,194.812637 493.926483,196.488907 
	C488.673401,201.316742 486.272736,207.004456 487.267334,214.231689 
	C487.733368,217.617996 487.347137,221.121582 487.347137,225.150665 
	C482.837921,225.150665 478.786011,225.150665 474.747955,225.150665 
	C474.747955,232.674423 474.747955,239.600037 474.747955,246.955460 
	C478.987976,246.955460 482.921021,246.955460 487.347076,246.955460 
	C487.347076,249.325500 487.318756,251.280350 487.351685,253.234161 
	C487.564880,265.884277 487.400940,278.556519 488.121613,291.178009 
	C488.865967,304.214264 495.889740,312.789001 507.305969,313.693237 
	C518.693909,314.595276 530.209106,313.891052 541.734009,313.891052 
	C541.734009,305.942841 541.734009,298.027344 541.734009,289.884155 
	C533.999512,289.884155 526.527527,289.941681 519.057007,289.861450 
	C514.918762,289.817017 511.126801,288.786285 511.064087,283.693848 
	C510.914948,271.590149 511.016052,259.483368 511.016052,246.884644 
	C521.362976,246.884644 531.432373,246.884644 541.669189,246.884644 
	C541.669189,239.347183 541.669189,232.309860 541.669189,224.844910 
	C531.257507,224.844910 521.171631,224.844910 510.801971,224.844910 
	C510.801971,218.444565 510.801971,212.472183 510.802002,205.500305 
M424.787628,220.306046 
	C424.705170,221.754288 424.622742,223.202515 424.519104,225.023483 
	C414.118713,225.023483 404.019989,225.023483 393.650848,225.023483 
	C393.650848,232.464920 393.650848,239.510635 393.650848,247.146133 
	C404.181061,247.146133 414.395477,247.146133 424.593262,247.146133 
	C424.593262,259.043457 424.810425,270.355438 424.510406,281.653687 
	C424.335205,288.250793 422.457855,289.679260 415.832733,289.879150 
	C413.503754,289.949432 411.170532,289.876587 408.839264,289.875488 
	C403.769196,289.873047 398.699127,289.874725 393.607544,289.874725 
	C393.607544,298.397125 393.607544,306.136505 393.607544,314.148743 
	C403.997192,314.148743 414.128815,314.353699 424.248779,314.097565 
	C437.320038,313.766724 445.758362,306.461914 446.850220,293.477203 
	C447.879761,281.233246 447.662872,268.883545 447.958160,256.579468 
	C448.032776,253.470108 447.969391,250.357437 447.969391,246.680725 
	C452.619385,246.680725 456.673462,246.680725 460.642731,246.680725 
	C460.642731,239.165665 460.642731,232.247467 460.642731,224.829254 
	C456.281647,224.829254 452.216522,224.829254 447.847076,224.829254 
	C447.847076,211.893860 447.847076,199.463760 447.847076,187.142654 
	C442.283478,185.433624 438.883514,187.457794 435.104248,191.415237 
	C427.460754,199.419128 422.585907,207.937790 424.787628,220.306046 
M308.235596,207.498550 
	C308.235596,200.698669 308.235596,193.898773 308.235596,187.135345 
	C303.112305,185.792114 299.233521,186.348663 296.203857,190.883606 
	C293.815247,194.459015 290.376038,197.331757 287.980347,200.903519 
	C286.439117,203.201340 285.340485,206.148697 285.106964,208.895340 
	C284.661926,214.130310 284.977875,219.429962 284.977875,225.182693 
	C280.390076,225.182693 276.322479,225.182693 272.289673,225.182693 
	C272.289673,232.600464 272.289673,239.519272 272.289673,246.998505 
	C276.611389,246.998505 280.676147,246.998505 284.995361,246.998505 
	C284.995361,250.036453 284.945679,252.512421 285.003693,254.985870 
	C285.304108,267.791046 285.128021,280.633972 286.099152,293.389038 
	C286.982300,304.988434 293.977173,312.811798 304.644623,313.656708 
	C316.032532,314.558655 327.547241,313.859894 339.218933,313.859894 
	C339.218933,305.944244 339.218933,298.051758 339.218933,289.904816 
	C331.579010,289.904816 324.265228,290.007568 316.956390,289.861938 
	C313.235321,289.787842 308.970398,289.472168 308.868225,284.468964 
	C308.614777,272.060150 308.784943,259.642670 308.784943,246.778015 
	C318.974121,246.778015 329.062775,246.778015 339.256348,246.778015 
	C339.256348,239.290543 339.256348,232.260223 339.256348,224.813736 
	C328.770874,224.813736 318.683899,224.813736 308.235657,224.813736 
	C308.235657,219.096512 308.235657,213.797058 308.235596,207.498550 
M352.933868,269.500000 
	C352.933868,284.269623 352.933868,299.039246 352.933868,314.044373 
	C360.804932,314.044373 368.195740,314.044373 375.747925,314.044373 
	C375.747925,284.324066 375.747925,254.818146 375.747925,225.331329 
	C368.016968,225.331329 360.617767,225.331329 352.933868,225.331329 
	C352.933868,239.920670 352.933868,254.210327 352.933868,269.500000 
M658.983887,300.308441 
	C658.591003,304.806702 658.198181,309.304932 657.788147,313.999573 
	C684.495361,313.999573 710.371643,313.999573 736.130737,313.999573 
	C736.130737,309.207672 736.130737,304.786804 736.130737,300.138580 
	C710.500916,300.138580 685.200256,300.138580 658.983887,300.308441 
M352.934296,197.506836 
	C352.934296,201.603485 352.934296,205.700150 352.934296,209.885956 
	C360.885254,209.885956 368.265778,209.885956 375.791931,209.885956 
	C375.791931,202.106125 375.791931,194.569199 375.791931,186.902222 
	C368.128815,186.902222 360.752075,186.902222 352.934174,186.902222 
	C352.934174,190.281433 352.934174,193.398605 352.934296,197.506836 
z"/>
<path fill="#1F3892" opacity="1.000000" stroke="none" 
	d="
M69.944122,273.969635 
	C65.775848,252.897430 69.685783,234.507477 85.509239,219.679306 
	C100.051125,206.052124 117.314606,201.655167 136.256195,207.259659 
	C144.111969,209.584061 151.080246,214.907928 159.164459,219.250366 
	C160.558701,217.605026 163.191605,215.059525 165.140411,212.068314 
	C168.167694,207.421783 172.047379,205.718063 177.674927,207.383011 
	C177.674927,241.398331 177.674927,275.616241 177.674927,309.925293 
	C167.186295,313.444244 164.746109,303.032898 158.217789,298.612854 
	C142.452316,314.348022 123.500618,318.784760 102.624001,311.006439 
	C85.679962,304.693298 75.167900,291.680206 69.944122,273.969635 
M152.096786,272.368805 
	C152.765121,267.139648 154.198364,261.876709 153.969223,256.687195 
	C152.984741,234.390610 128.787842,220.399033 108.862900,230.313797 
	C96.484024,236.473618 89.053581,251.002396 91.173843,264.901306 
	C93.250595,278.515015 104.548958,290.188568 117.511894,292.114014 
	C132.552933,294.348114 144.847397,287.554413 152.096786,272.368805 
z"/>
<path fill="#203993" opacity="1.000000" stroke="none" 
	d="
M568.436829,304.572937 
	C559.978882,295.985260 555.712463,285.917389 555.604797,274.266144 
	C555.447815,257.278839 555.571777,240.288895 555.592590,223.300079 
	C555.593384,222.657974 555.767395,222.016083 555.889221,221.177338 
	C563.440552,221.177338 570.869080,221.177338 578.653687,221.177338 
	C578.738708,222.722565 578.884521,224.163193 578.886963,225.604034 
	C578.911072,239.927948 578.842407,254.252365 578.939758,268.575684 
	C579.022095,280.680664 587.239014,289.180481 598.622498,289.164001 
	C610.062195,289.147430 618.245789,280.734222 618.344543,268.586273 
	C618.458191,254.596512 618.356262,240.604996 618.348145,226.614227 
	C618.347229,224.973160 618.348022,223.332092 618.348022,221.326477 
	C626.213867,221.326477 633.752136,221.326477 641.581665,221.326477 
	C641.581665,251.471054 641.581665,281.549896 641.581665,313.183136 
	C638.041382,312.105621 634.388611,311.812408 631.823303,309.989197 
	C629.108826,308.059937 627.429199,304.674622 624.995239,301.535431 
	C616.226379,310.826904 605.728943,314.889252 593.199768,314.395630 
	C583.781189,314.024506 575.661255,311.085052 568.436829,304.572937 
z"/>
<path fill="#203893" opacity="1.000000" stroke="none" 
	d="
M191.306885,245.510010 
	C191.226227,238.589417 191.226227,232.122925 191.226227,225.251648 
	C195.483597,225.251648 199.405411,225.251648 204.085220,225.251648 
	C204.085220,219.627594 203.775085,214.354065 204.211746,209.143112 
	C204.441422,206.402252 205.503906,203.455643 207.031860,201.162735 
	C209.416718,197.583893 212.510895,194.476685 215.315094,191.178635 
	C219.585526,186.156189 219.589371,186.159454 227.374298,186.955109 
	C227.374298,199.424271 227.374298,211.974030 227.374298,224.939423 
	C238.037613,224.939423 248.135895,224.939423 258.542908,224.939423 
	C258.542908,232.274048 258.542908,239.189651 258.542908,246.776855 
	C248.384659,246.776855 238.175262,246.776855 227.874832,246.776855 
	C227.874832,259.556549 227.787521,271.671509 227.915710,283.784180 
	C227.970779,288.988403 231.892883,289.812988 235.956039,289.872742 
	C243.409805,289.982300 250.866318,289.903961 258.588043,289.903961 
	C258.588043,298.060699 258.588043,305.829163 258.588043,313.474487 
	C246.529236,313.474487 234.363907,314.466766 222.445251,313.178009 
	C211.849396,312.032227 206.049774,304.275848 205.112610,292.437714 
	C204.260071,281.668701 204.359756,270.822510 204.104507,260.008850 
	C204.006760,255.868179 204.088608,251.723267 204.088608,247.487701 
	C199.683746,246.959305 195.535660,246.461685 191.306885,245.510010 
z"/>
<path fill="#213993" opacity="1.000000" stroke="none" 
	d="
M510.802002,206.000061 
	C510.801971,212.472183 510.801971,218.444565 510.801971,224.844910 
	C521.171631,224.844910 531.257507,224.844910 541.669189,224.844910 
	C541.669189,232.309860 541.669189,239.347183 541.669189,246.884644 
	C531.432373,246.884644 521.362976,246.884644 511.016052,246.884644 
	C511.016052,259.483368 510.914948,271.590149 511.064087,283.693848 
	C511.126801,288.786285 514.918762,289.817017 519.057007,289.861450 
	C526.527527,289.941681 533.999512,289.884155 541.734009,289.884155 
	C541.734009,298.027344 541.734009,305.942841 541.734009,313.891052 
	C530.209106,313.891052 518.693909,314.595276 507.305969,313.693237 
	C495.889740,312.789001 488.865967,304.214264 488.121613,291.178009 
	C487.400940,278.556519 487.564880,265.884277 487.351685,253.234161 
	C487.318756,251.280350 487.347076,249.325500 487.347076,246.955460 
	C482.921021,246.955460 478.987976,246.955460 474.747955,246.955460 
	C474.747955,239.600037 474.747955,232.674423 474.747955,225.150665 
	C478.786011,225.150665 482.837921,225.150665 487.347137,225.150665 
	C487.347137,221.121582 487.733368,217.617996 487.267334,214.231689 
	C486.272736,207.004456 488.673401,201.316742 493.926483,196.488907 
	C495.750458,194.812637 497.444427,192.869492 498.735962,190.764847 
	C501.625458,186.056213 505.764923,186.033493 510.802002,187.000092 
	C510.802002,193.253311 510.802002,199.376801 510.802002,206.000061 
z"/>
<path fill="#D02522" opacity="1.000000" stroke="none" 
	d="
M424.787628,219.825134 
	C422.585907,207.937790 427.460754,199.419128 435.104248,191.415237 
	C438.883514,187.457794 442.283478,185.433624 447.847076,187.142654 
	C447.847076,199.463760 447.847076,211.893860 447.847076,224.829254 
	C452.216522,224.829254 456.281647,224.829254 460.642731,224.829254 
	C460.642731,232.247467 460.642731,239.165665 460.642731,246.680725 
	C456.673462,246.680725 452.619385,246.680725 447.969391,246.680725 
	C447.969391,250.357437 448.032776,253.470108 447.958160,256.579468 
	C447.662872,268.883545 447.879761,281.233246 446.850220,293.477203 
	C445.758362,306.461914 437.320038,313.766724 424.248779,314.097565 
	C414.128815,314.353699 403.997192,314.148743 393.607544,314.148743 
	C393.607544,306.136505 393.607544,298.397125 393.607544,289.874725 
	C398.699127,289.874725 403.769196,289.873047 408.839264,289.875488 
	C411.170532,289.876587 413.503754,289.949432 415.832733,289.879150 
	C422.457855,289.679260 424.335205,288.250793 424.510406,281.653687 
	C424.810425,270.355438 424.593262,259.043457 424.593262,247.146133 
	C414.395477,247.146133 404.181061,247.146133 393.650848,247.146133 
	C393.650848,239.510635 393.650848,232.464920 393.650848,225.023483 
	C404.019989,225.023483 414.118713,225.023483 424.519104,225.023483 
	C424.622742,223.202515 424.705170,221.754288 424.787628,219.825134 
z"/>
<path fill="#1F3792" opacity="1.000000" stroke="none" 
	d="
M308.235626,207.998077 
	C308.235657,213.797058 308.235657,219.096512 308.235657,224.813736 
	C318.683899,224.813736 328.770874,224.813736 339.256348,224.813736 
	C339.256348,232.260223 339.256348,239.290543 339.256348,246.778015 
	C329.062775,246.778015 318.974121,246.778015 308.784943,246.778015 
	C308.784943,259.642670 308.614777,272.060150 308.868225,284.468964 
	C308.970398,289.472168 313.235321,289.787842 316.956390,289.861938 
	C324.265228,290.007568 331.579010,289.904816 339.218933,289.904816 
	C339.218933,298.051758 339.218933,305.944244 339.218933,313.859894 
	C327.547241,313.859894 316.032532,314.558655 304.644623,313.656708 
	C293.977173,312.811798 286.982300,304.988434 286.099152,293.389038 
	C285.128021,280.633972 285.304108,267.791046 285.003693,254.985870 
	C284.945679,252.512421 284.995361,250.036453 284.995361,246.998505 
	C280.676147,246.998505 276.611389,246.998505 272.289673,246.998505 
	C272.289673,239.519272 272.289673,232.600464 272.289673,225.182693 
	C276.322479,225.182693 280.390076,225.182693 284.977875,225.182693 
	C284.977875,219.429962 284.661926,214.130310 285.106964,208.895340 
	C285.340485,206.148697 286.439117,203.201340 287.980347,200.903519 
	C290.376038,197.331757 293.815247,194.459015 296.203857,190.883606 
	C299.233521,186.348663 303.112305,185.792114 308.235596,187.135345 
	C308.235596,193.898773 308.235596,200.698669 308.235626,207.998077 
z"/>
<path fill="#1D3692" opacity="1.000000" stroke="none" 
	d="
M352.933868,269.000000 
	C352.933868,254.210327 352.933868,239.920670 352.933868,225.331329 
	C360.617767,225.331329 368.016968,225.331329 375.747925,225.331329 
	C375.747925,254.818146 375.747925,284.324066 375.747925,314.044373 
	C368.195740,314.044373 360.804932,314.044373 352.933868,314.044373 
	C352.933868,299.039246 352.933868,284.269623 352.933868,269.000000 
z"/>
<path fill="#D12623" opacity="1.000000" stroke="none" 
	d="
M659.441772,300.223511 
	C685.200256,300.138580 710.500916,300.138580 736.130737,300.138580 
	C736.130737,304.786804 736.130737,309.207672 736.130737,313.999573 
	C710.371643,313.999573 684.495361,313.999573 657.788147,313.999573 
	C658.198181,309.304932 658.591003,304.806702 659.441772,300.223511 
z"/>
<path fill="#1D3692" opacity="1.000000" stroke="none" 
	d="
M352.934235,197.011322 
	C352.934174,193.398605 352.934174,190.281433 352.934174,186.902222 
	C360.752075,186.902222 368.128815,186.902222 375.791931,186.902222 
	C375.791931,194.569199 375.791931,202.106125 375.791931,209.885956 
	C368.265778,209.885956 360.885254,209.885956 352.934296,209.885956 
	C352.934296,205.700150 352.934296,201.603485 352.934235,197.011322 
z"/>
<path fill="none" opacity="1.000000" stroke="none" 
	d="
M151.988968,272.745483 
	C144.847397,287.554413 132.552933,294.348114 117.511894,292.114014 
	C104.548958,290.188568 93.250595,278.515015 91.173843,264.901306 
	C89.053581,251.002396 96.484024,236.473618 108.862900,230.313797 
	C128.787842,220.399033 152.984741,234.390610 153.969223,256.687195 
	C154.198364,261.876709 152.765121,267.139648 151.988968,272.745483 
z"/>
</svg>